<svg xmlns="http://www.w3.org/2000/svg" xmlns:xlink="http://www.w3.org/1999/xlink" width="297.83203125" height="328.611328125" viewBox="543.7949829101562 2168.089111328125 74.4580078125 82.15283203125"><g><g><path d="M 603.9409790039062 2175.7919921875 L 603.9409790039062 2180.1298828125 C 603.9409790039062 2183.055908203125 601.5609741210938 2185.43701171875 598.635009765625 2185.43701171875 C 595.708984375 2185.43701171875 593.3289794921875 2183.055908203125 593.3289794921875 2180.1298828125 L 593.3289794921875 2175.785888671875 L 568.718994140625 2175.785888671875 L 568.718994140625 2180.1298828125 C 568.718994140625 2183.055908203125 566.3389892578125 2185.43701171875 563.4130249023438 2185.43701171875 C 560.4869995117188 2185.43701171875 558.1069946289062 2183.055908203125 558.1069946289062 2180.1298828125 L 558.1069946289062 2175.7919921875 C 550.177001953125 2176.014892578125 543.7949829101562 2182.533935546875 543.7949829101562 2190.51708984375 L 543.7949829101562 2235.511962890625 C 543.7949829101562 2243.634033203125 550.4039916992188 2250.241943359375 558.5260009765625 2250.241943359375 L 603.52197265625 2250.241943359375 C 611.6439819335938 2250.241943359375 618.2529907226562 2243.634033203125 618.2529907226562 2235.511962890625 L 618.2529907226562 2190.51708984375 C 618.2529907226562 2182.533935546875 611.8709716796875 2176.014892578125 603.9409790039062 2175.7919921875 Z M 603.52197265625 2247.06298828125 L 558.5260009765625 2247.06298828125 C 552.156982421875 2247.06298828125 546.9749755859375 2241.882080078125 546.9749755859375 2235.511962890625 L 546.9749755859375 2197.136962890625 L 615.072998046875 2197.136962890625 L 615.072998046875 2235.511962890625 C 615.072998046875 2241.882080078125 609.8909912109375 2247.06298828125 603.52197265625 2247.06298828125 Z" fill="#1c3a39" fill-rule="evenodd"/><path d="M3.351914882659912 0L3.351921558380127 0A3.351914882659912 3.351914882659912 0 0 1 6.703836441040039 3.351914882659912L6.703836441040039 12.040847063064575A3.351915121078491 3.351915121078491 0 0 1 3.351921319961548 15.392762184143066L3.351915121078491 15.392762184143066A3.351915121078491 3.351915121078491 0 0 1 0 12.040847063064575L0 3.351914882659912A3.351914882659912 3.351914882659912 0 0 1 3.351914882659912 0z" transform="matrix(1,0,0,1,560.0610961914062,2168.089111328125)" fill="#1c3a39" fill-rule="evenodd"/><path d="M3.351915121078491 0L3.351922035217285 0A3.351914882659912 3.351914882659912 0 0 1 6.703836917877197 3.351914882659912L6.703836917877197 12.040847301483154A3.351914882659912 3.351914882659912 0 0 1 3.351922035217285 15.392762184143066L3.351915121078491 15.392762184143066A3.351915121078491 3.351915121078491 0 0 1 0 12.040847063064575L0 3.351915121078491A3.351915121078491 3.351915121078491 0 0 1 3.351915121078491 0z" transform="matrix(1,0,0,1,595.2831420898438,2168.089111328125)" fill="#1c3a39" fill-rule="evenodd"/></g><path d="M 603.9409790039062 2175.7919921875 L 603.9409790039062 2180.1298828125 C 603.9409790039062 2183.055908203125 601.5609741210938 2185.43701171875 598.635009765625 2185.43701171875 C 595.708984375 2185.43701171875 593.3289794921875 2183.055908203125 593.3289794921875 2180.1298828125 L 593.3289794921875 2175.785888671875 L 568.718994140625 2175.785888671875 L 568.718994140625 2180.1298828125 C 568.718994140625 2183.055908203125 566.3389892578125 2185.43701171875 563.4130249023438 2185.43701171875 C 560.4869995117188 2185.43701171875 558.1069946289062 2183.055908203125 558.1069946289062 2180.1298828125 L 558.1069946289062 2175.7919921875 C 550.177001953125 2176.014892578125 543.7949829101562 2182.533935546875 543.7949829101562 2190.51708984375 L 543.7949829101562 2235.511962890625 C 543.7949829101562 2243.634033203125 550.4039916992188 2250.241943359375 558.5260009765625 2250.241943359375 L 603.52197265625 2250.241943359375 C 611.6439819335938 2250.241943359375 618.2529907226562 2243.634033203125 618.2529907226562 2235.511962890625 L 618.2529907226562 2190.51708984375 C 618.2529907226562 2182.533935546875 611.8709716796875 2176.014892578125 603.9409790039062 2175.7919921875 Z M 603.52197265625 2247.06298828125 L 558.5260009765625 2247.06298828125 C 552.156982421875 2247.06298828125 546.9749755859375 2241.882080078125 546.9749755859375 2235.511962890625 L 546.9749755859375 2197.136962890625 L 615.072998046875 2197.136962890625 L 615.072998046875 2235.511962890625 C 615.072998046875 2241.882080078125 609.8909912109375 2247.06298828125 603.52197265625 2247.06298828125 Z" fill="#1c3a39" fill-rule="evenodd"/><path d="M0 0L68.90984040498734 0A0.6356155276298523 0.6356155276298523 0 0 1 69.54545593261719 0.6356155276298523L69.54545593261719 40.80792427062988A10.192075729370117 10.192075729370117 0 0 1 59.35338020324707 51L10.192075729370117 51A10.192075729370117 10.192075729370117 0 0 1 0 40.80792427062988L0 0A0 0 0 0 1 0 0z" transform="matrix(1,0,0,1,546,2197)" fill="#ffecc7" fill-rule="evenodd"/></g></svg>